{"accessors":[{"bufferView":0,"componentType":5125,"count":3006,"max":[3005.0],"min":[0.0],"type":"SCALAR"},{"bufferView":1,"componentType":5126,"count":3006,"max":[0.16745734214782716,0.3222768306732178,-0.0035194959491491319],"min":[-0.48159313201904299,-0.15719249844551087,-0.18531477451324464],"type":"VEC3"},{"bufferView":2,"componentType":5126,"count":3006,"max":[1.0,0.9999732971191406,1.0],"min":[-0.9893301725387573,-0.999990701675415,-0.999991238117218],"type":"VEC3"},{"bufferView":3,"componentType":5126,"count":3006,"max":[0.9827747344970703,0.9891608953475952],"min":[0.023470846936106683,0.003523528575897217],"type":"VEC2"},{"bufferView":4,"componentType":5125,"count":3006,"max":[3001.0],"min":[0.0],"type":"SCALAR"},{"bufferView":5,"componentType":5126,"count":3006,"max":[7.860538482666016,-4.76490592956543,-0.0035194959491491319],"min":[7.328678131103516,-5.370311737060547,-0.18531477451324464],"type":"VEC3"},{"bufferView":6,"componentType":5126,"count":3006,"max":[0.9991224408149719,0.9749142527580261,1.0],"min":[-0.9911102652549744,-0.9913073778152466,-0.9999912977218628],"type":"VEC3"},{"bufferView":7,"componentType":5126,"count":3006,"max":[0.9827747344970703,0.9891608953475952],"min":[0.023470846936106683,0.003523528575897217],"type":"VEC2"},{"bufferView":8,"componentType":5125,"count":2640,"max":[2630.0],"min":[0.0],"type":"SCALAR"},{"bufferView":9,"componentType":5126,"count":2640,"max":[0.32297754287719729,0.24859923124313355,0.31231504678726199],"min":[-0.3236476182937622,-0.20877507328987122,-0.31231510639190676],"type":"VEC3"},{"bufferView":10,"componentType":5126,"count":2640,"max":[0.9524528980255127,0.9999585151672363,0.9673854112625122],"min":[-0.9497800469398499,-0.9998109340667725,-0.967607319355011],"type":"VEC3"},{"bufferView":11,"componentType":5125,"count":2640,"max":[2630.0],"min":[0.0],"type":"SCALAR"},{"bufferView":12,"componentType":5126,"count":2640,"max":[0.30702632665634158,0.26567310094833376,0.3071814775466919],"min":[-0.30690860748291018,-0.2233792245388031,-0.30718153715133669],"type":"VEC3"},{"bufferView":13,"componentType":5126,"count":2640,"max":[0.9380730390548706,0.9999884366989136,0.963706910610199],"min":[-0.9380585551261902,-0.9998707175254822,-0.9637176394462586],"type":"VEC3"},{"bufferView":14,"componentType":5125,"count":2640,"max":[2633.0],"min":[0.0],"type":"SCALAR"},{"bufferView":15,"componentType":5126,"count":2640,"max":[0.3249853849411011,0.2503671646118164,0.30879175662994387],"min":[-0.32390111684799197,-0.21035447716712953,-0.3087918758392334],"type":"VEC3"},{"bufferView":16,"componentType":5126,"count":2640,"max":[0.940025269985199,0.9999721646308899,0.9684045910835266],"min":[-0.9439383149147034,-0.999837338924408,-0.9680217504501343],"type":"VEC3"},{"bufferView":17,"componentType":5125,"count":2640,"max":[2633.0],"min":[0.0],"type":"SCALAR"},{"bufferView":18,"componentType":5126,"count":2640,"max":[0.3249853849411011,0.2503671646118164,0.30879175662994387],"min":[-0.32390111684799197,-0.21035447716712953,-0.3087918758392334],"type":"VEC3"},{"bufferView":19,"componentType":5126,"count":2640,"max":[0.940025269985199,0.9999721646308899,0.9684045910835266],"min":[-0.9439383149147034,-0.999837338924408,-0.9680217504501343],"type":"VEC3"},{"bufferView":20,"componentType":5125,"count":2640,"max":[2633.0],"min":[0.0],"type":"SCALAR"},{"bufferView":21,"componentType":5126,"count":2640,"max":[0.3249853849411011,0.2503671646118164,0.30879175662994387],"min":[-0.32390111684799197,-0.21035447716712953,-0.3087918758392334],"type":"VEC3"},{"bufferView":22,"componentType":5126,"count":2640,"max":[0.940025269985199,0.9999721646308899,0.9684045910835266],"min":[-0.9439383149147034,-0.999837338924408,-0.9680217504501343],"type":"VEC3"},{"bufferView":23,"componentType":5125,"count":11472,"max":[11468.0],"min":[0.0],"type":"SCALAR"},{"bufferView":24,"componentType":5126,"count":11472,"max":[3.5388779640197756,14.294029235839844,1.247724175453186],"min":[-3.5388779640197756,8.071511268615723,-1.8667411804199219],"type":"VEC3"},{"bufferView":25,"componentType":5126,"count":11472,"max":[0.9966619610786438,0.9958041310310364,0.9973989129066467],"min":[-0.9966619610786438,-0.9997521638870239,-0.9973742365837097],"type":"VEC3"},{"bufferView":26,"componentType":5125,"count":9600,"max":[9539.0],"min":[0.0],"type":"SCALAR"},{"bufferView":27,"componentType":5126,"count":9600,"max":[1.7718987464904786,0.834193229675293,1.7718994617462159],"min":[-1.771899938583374,-0.058885931968688968,-1.7719000577926636],"type":"VEC3"},{"bufferView":28,"componentType":5126,"count":9600,"max":[0.9986300468444824,0.9990670084953308,0.9986298084259033],"min":[-0.9986295104026794,-1.0,-0.9986296892166138],"type":"VEC3"},{"bufferView":29,"componentType":5125,"count":240,"max":[239.0],"min":[0.0],"type":"SCALAR"},{"bufferView":30,"componentType":5126,"count":240,"max":[-0.15272513031959535,9.530665397644043,0.7562851905822754],"min":[-0.25942468643188479,9.4174165725708,0.6381381154060364],"type":"VEC3"},{"bufferView":31,"componentType":5126,"count":240,"max":[0.8382731676101685,0.9904655814170837,0.8058257699012756],"min":[-0.8381425738334656,-0.9904654026031494,-0.8042842745780945],"type":"VEC3"},{"bufferView":32,"componentType":5125,"count":240,"max":[239.0],"min":[0.0],"type":"SCALAR"},{"bufferView":33,"componentType":5126,"count":240,"max":[-0.23146581649780274,9.55635929107666,0.5494789481163025],"min":[-0.31747961044311526,9.445918083190918,0.4538067579269409],"type":"VEC3"},{"bufferView":34,"componentType":5126,"count":240,"max":[0.9928566813468933,0.9904645681381226,0.9913106560707092],"min":[-0.9927147626876831,-0.9904710054397583,-0.9908589720726013],"type":"VEC3"},{"bufferView":35,"componentType":5125,"count":240,"max":[239.0],"min":[0.0],"type":"SCALAR"},{"bufferView":36,"componentType":5126,"count":240,"max":[0.3546505868434906,9.55635929107666,0.5494789481163025],"min":[0.2686367928981781,9.445918083190918,0.4538067579269409],"type":"VEC3"},{"bufferView":37,"componentType":5126,"count":240,"max":[0.9927148818969727,0.9904698133468628,0.9913104772567749],"min":[-0.992856502532959,-0.9904701709747315,-0.9908586144447327],"type":"VEC3"},{"bufferView":38,"componentType":5125,"count":240,"max":[239.0],"min":[0.0],"type":"SCALAR"},{"bufferView":39,"componentType":5126,"count":240,"max":[0.3246833086013794,9.538590431213379,0.6903705596923828],"min":[0.22626422345638276,9.426478385925293,0.5813215970993042],"type":"VEC3"},{"bufferView":40,"componentType":5126,"count":240,"max":[0.9465888738632202,0.9904643297195435,0.9335704445838928],"min":[-0.9467295408248901,-0.9904659390449524,-0.9325417876243591],"type":"VEC3"},{"bufferView":41,"componentType":5125,"count":240,"max":[239.0],"min":[0.0],"type":"SCALAR"},{"bufferView":42,"componentType":5126,"count":240,"max":[0.3435768485069275,9.54737377166748,0.6222674250602722],"min":[0.2498169243335724,9.435892105102539,0.5182590484619141],"type":"VEC3"},{"bufferView":43,"componentType":5126,"count":240,"max":[0.9712858200073242,0.990463137626648,0.9642601013183594],"min":[-0.9714245200157166,-0.9904690980911255,-0.9634538292884827],"type":"VEC3"},{"bufferView":44,"componentType":5125,"count":240,"max":[239.0],"min":[0.0],"type":"SCALAR"},{"bufferView":45,"componentType":5126,"count":240,"max":[0.2965956926345825,9.530665397644043,0.7562851905822754],"min":[0.18989604711532594,9.4174165725708,0.6381381154060364],"type":"VEC3"},{"bufferView":46,"componentType":5126,"count":240,"max":[0.8381426334381104,0.990466296672821,0.8058063387870789],"min":[-0.8382753133773804,-0.9904653429985046,-0.8042897582054138],"type":"VEC3"},{"bufferView":47,"componentType":5125,"count":240,"max":[239.0],"min":[0.0],"type":"SCALAR"},{"bufferView":48,"componentType":5126,"count":240,"max":[-0.18909329175949098,9.538590431213379,0.6903705596923828],"min":[-0.28751233220100405,9.426478385925293,0.5813215970993042],"type":"VEC3"},{"bufferView":49,"componentType":5126,"count":240,"max":[0.9467289447784424,0.9904660582542419,0.9335712194442749],"min":[-0.9465866684913635,-0.9904654622077942,-0.9325422644615173],"type":"VEC3"},{"bufferView":50,"componentType":5125,"count":240,"max":[239.0],"min":[0.0],"type":"SCALAR"},{"bufferView":51,"componentType":5126,"count":240,"max":[-0.24103416502475739,9.565360069274903,0.47920840978622439],"min":[-0.3217718303203583,9.455625534057618,0.38919445872306826],"type":"VEC3"},{"bufferView":52,"componentType":5126,"count":240,"max":[0.9987250566482544,0.9904658198356628,0.9986887574195862],"min":[-0.9985837936401367,-0.9904674887657166,-0.9984626173973084],"type":"VEC3"},{"bufferView":53,"componentType":5125,"count":228,"max":[131.0],"min":[0.0],"type":"SCALAR"},{"bufferView":54,"componentType":5126,"count":228,"max":[0.24967385828495027,9.552204132080079,0.8109619617462158],"min":[0.14310388267040254,9.414384841918946,0.6933353543281555],"type":"VEC3"},{"bufferView":55,"componentType":5126,"count":228,"max":[0.9685906767845154,0.9904680252075195,0.9968366026878357],"min":[-0.8006059527397156,-0.9904648661613464,-0.8169233798980713],"type":"VEC3"},{"bufferView":56,"componentType":5125,"count":228,"max":[131.0],"min":[0.0],"type":"SCALAR"},{"bufferView":57,"componentType":5126,"count":228,"max":[0.02411773055791855,9.507232666015625,0.8656420707702637],"min":[-0.06885372847318649,9.390266418457032,0.7730585336685181],"type":"VEC3"},{"bufferView":58,"componentType":5126,"count":228,"max":[0.99944007396698,0.9904624819755554,0.9959073662757874],"min":[-0.9971919655799866,-0.9900211691856384,-0.9812222123146057],"type":"VEC3"},{"bufferView":59,"componentType":5125,"count":228,"max":[131.0],"min":[0.0],"type":"SCALAR"},{"bufferView":60,"componentType":5126,"count":228,"max":[0.1840892732143402,9.52718734741211,0.8494740724563599],"min":[0.07575581967830658,9.392134666442871,0.7429535388946533],"type":"VEC3"},{"bufferView":61,"componentType":5126,"count":228,"max":[0.9155557751655579,0.9904558658599854,0.9981018900871277],"min":[-0.9155600666999817,-0.9904700517654419,-0.9720215797424316],"type":"VEC3"},{"bufferView":62,"componentType":5125,"count":228,"max":[131.0],"min":[0.0],"type":"SCALAR"},{"bufferView":63,"componentType":5126,"count":228,"max":[-0.10593293607234955,9.552204132080079,0.8109619617462158],"min":[-0.21250294148921967,9.414384841918946,0.6933353543281555],"type":"VEC3"},{"bufferView":64,"componentType":5126,"count":228,"max":[0.8005979657173157,0.9904702305793762,0.9968366026878357],"min":[-0.9685919880867004,-0.9904641509056091,-0.8169233202934265],"type":"VEC3"},{"bufferView":65,"componentType":5125,"count":240,"max":[239.0],"min":[0.0],"type":"SCALAR"},{"bufferView":66,"componentType":5126,"count":240,"max":[0.35894280672073367,9.565360069274903,0.47920840978622439],"min":[0.27820515632629397,9.455625534057618,0.38919445872306826],"type":"VEC3"},{"bufferView":67,"componentType":5126,"count":240,"max":[0.9985838532447815,0.990466296672821,0.998688817024231],"min":[-0.9987250566482544,-0.9904659390449524,-0.9984627366065979],"type":"VEC3"},{"bufferView":68,"componentType":5125,"count":228,"max":[131.0],"min":[0.0],"type":"SCALAR"},{"bufferView":69,"componentType":5126,"count":228,"max":[-0.038584865629673007,9.52718734741211,0.8494740724563599],"min":[-0.14691835641860963,9.392134666442871,0.7429535388946533],"type":"VEC3"},{"bufferView":70,"componentType":5126,"count":228,"max":[0.9155629873275757,0.9904620051383972,0.9981017708778381],"min":[-0.9155540466308594,-0.9904659390449524,-0.9720218181610107],"type":"VEC3"},{"bufferView":71,"componentType":5125,"count":240,"max":[239.0],"min":[0.0],"type":"SCALAR"},{"bufferView":72,"componentType":5126,"count":240,"max":[-0.2126459926366806,9.54737377166748,0.6222674250602722],"min":[-0.3064058721065521,9.435892105102539,0.5182590484619141],"type":"VEC3"},{"bufferView":73,"componentType":5126,"count":240,"max":[0.9714242219924927,0.9904636740684509,0.9642592072486877],"min":[-0.9712857007980347,-0.9904702305793762,-0.9634542465209961],"type":"VEC3"},{"bufferView":74,"componentType":5125,"count":228,"max":[131.0],"min":[0.0],"type":"SCALAR"},{"bufferView":75,"componentType":5126,"count":228,"max":[0.10602468997240067,9.507232666015625,0.8656420707702637],"min":[0.013053222559392453,9.390266418457032,0.7730585336685181],"type":"VEC3"},{"bufferView":76,"componentType":5126,"count":228,"max":[0.9971920251846314,0.9904649257659912,0.9959073066711426],"min":[-0.99944007396698,-0.9904637932777405,-0.9812213778495789],"type":"VEC3"},{"bufferView":77,"componentType":5125,"count":2280,"max":[2222.0],"min":[0.0],"type":"SCALAR"},{"bufferView":78,"componentType":5126,"count":2280,"max":[0.7709982991218567,0.7709991335868836,0.7709998488426209],"min":[-0.7709985971450806,-0.7709976434707642,-0.7709983587265015],"type":"VEC3"},{"bufferView":79,"componentType":5126,"count":2280,"max":[1.0,0.9999999403953552,1.0],"min":[-1.0,-1.0,-1.0],"type":"VEC3"},{"bufferView":80,"componentType":5125,"count":2280,"max":[2222.0],"min":[0.0],"type":"SCALAR"},{"bufferView":81,"componentType":5126,"count":2280,"max":[0.7709983587265015,0.7709983587265015,0.770998477935791],"min":[-0.7709985971450806,-0.7709983587265015,-0.7709987759590149],"type":"VEC3"},{"bufferView":82,"componentType":5126,"count":2280,"max":[1.0,1.0,1.0],"min":[-1.0,-1.0,-1.0],"type":"VEC3"},{"bufferView":83,"componentType":5125,"count":774,"max":[773.0],"min":[0.0],"type":"SCALAR"},{"bufferView":84,"componentType":5126,"count":774,"max":[0.8571110963821411,0.208955317735672,0.09729629755020142],"min":[-0.857110857963562,-0.20145836472511292,-0.09729641675949097],"type":"VEC3"},{"bufferView":85,"componentType":5126,"count":774,"max":[1.0,1.0,1.0],"min":[-1.0,-1.0,-1.0],"type":"VEC3"},{"bufferView":86,"componentType":5126,"count":774,"max":[0.9710062742233276,0.8060759902000427],"min":[0.02860182523727417,0.16895174980163575],"type":"VEC2"},{"bufferView":87,"componentType":5125,"count":774,"max":[773.0],"min":[0.0],"type":"SCALAR"},{"bufferView":88,"componentType":5126,"count":774,"max":[2.131486415863037,0.208955317735672,2.0077991485595705],"min":[1.37603759765625,-0.20145836472511292,0.3705127239227295],"type":"VEC3"},{"bufferView":89,"componentType":5126,"count":774,"max":[0.9820521473884583,1.0,0.9877545833587647],"min":[-0.99546879529953,-1.0,-0.9278727769851685],"type":"VEC3"},{"bufferView":90,"componentType":5126,"count":774,"max":[0.9710062742233276,0.8060759902000427],"min":[0.02860182523727417,0.16895174980163575],"type":"VEC2"},{"bufferView":91,"componentType":5125,"count":2640,"max":[2630.0],"min":[0.0],"type":"SCALAR"},{"bufferView":92,"componentType":5126,"count":2640,"max":[0.30702632665634158,0.26567310094833376,0.3071814775466919],"min":[-0.30690860748291018,-0.2233792245388031,-0.30718153715133669],"type":"VEC3"},{"bufferView":93,"componentType":5126,"count":2640,"max":[0.9380730390548706,0.9999884366989136,0.963706910610199],"min":[-0.9380585551261902,-0.9998707175254822,-0.9637176394462586],"type":"VEC3"},{"bufferView":94,"componentType":5125,"count":2640,"max":[2630.0],"min":[0.0],"type":"SCALAR"},{"bufferView":95,"componentType":5126,"count":2640,"max":[0.30702632665634158,0.26567310094833376,0.3071814775466919],"min":[-0.30690860748291018,-0.2233792245388031,-0.30718153715133669],"type":"VEC3"},{"bufferView":96,"componentType":5126,"count":2640,"max":[0.9380730390548706,0.9999884366989136,0.963706910610199],"min":[-0.9380585551261902,-0.9998707175254822,-0.9637176394462586],"type":"VEC3"},{"bufferView":97,"componentType":5125,"count":2640,"max":[2630.0],"min":[0.0],"type":"SCALAR"},{"bufferView":98,"componentType":5126,"count":2640,"max":[0.30702632665634158,0.26567310094833376,0.3071814775466919],"min":[-0.30690860748291018,-0.2233792245388031,-0.30718153715133669],"type":"VEC3"},{"bufferView":99,"componentType":5126,"count":2640,"max":[0.9380730390548706,0.9999884366989136,0.963706910610199],"min":[-0.9380585551261902,-0.9998707175254822,-0.9637176394462586],"type":"VEC3"},{"bufferView":100,"componentType":5125,"count":5136,"max":[5135.0],"min":[0.0],"type":"SCALAR"},{"bufferView":101,"componentType":5126,"count":5136,"max":[4.377363681793213,9.054545402526856,1.784481167793274],"min":[-4.377363681793213,0.33537599444389346,-1.9425150156021119],"type":"VEC3"},{"bufferView":102,"componentType":5126,"count":5136,"max":[0.9994539618492127,0.9937578439712524,0.9935783743858337],"min":[-0.9994539618492127,-1.0,-0.9995259046554565],"type":"VEC3"},{"bufferView":103,"componentType":5126,"count":5136,"max":[0.9871921539306641,0.9876484274864197],"min":[0.020379185676574708,0.027062058448791505],"type":"VEC2"},{"bufferView":104,"componentType":5125,"count":3432,"max":[3427.0],"min":[0.0],"type":"SCALAR"},{"bufferView":105,"componentType":5126,"count":3432,"max":[4.813786029815674,6.064977169036865,-0.14198100566864015],"min":[4.213839054107666,5.596207141876221,-0.3532730042934418],"type":"VEC3"},{"bufferView":106,"componentType":5126,"count":3432,"max":[0.9929753541946411,0.9995415210723877,0.9999645948410034],"min":[-0.9975789189338684,-0.9999417066574097,-1.0],"type":"VEC3"},{"bufferView":107,"componentType":5126,"count":3432,"max":[0.9562569856643677,0.9813770055770874],"min":[0.06610900163650513,0.072579026222229],"type":"VEC2"},{"bufferView":108,"componentType":5125,"count":3432,"max":[3428.0],"min":[0.0],"type":"SCALAR"},{"bufferView":109,"componentType":5126,"count":3432,"max":[-4.213839054107666,6.064977169036865,-0.14198100566864015],"min":[-4.813786029815674,5.596207141876221,-0.3532730042934418],"type":"VEC3"},{"bufferView":110,"componentType":5126,"count":3432,"max":[0.9975787997245789,0.9995415210723877,0.9999645948410034],"min":[-0.9929753541946411,-0.9999417662620544,-1.0],"type":"VEC3"},{"bufferView":111,"componentType":5126,"count":3432,"max":[0.9562569856643677,0.9813770055770874],"min":[0.06610900163650513,0.072579026222229],"type":"VEC2"},{"bufferView":112,"componentType":5125,"count":5172,"max":[5166.0],"min":[0.0],"type":"SCALAR"},{"bufferView":113,"componentType":5126,"count":5172,"max":[1.498400092124939,11.879834175109864,1.277551293373108],"min":[-1.498400092124939,8.668025016784668,-1.8043686151504517],"type":"VEC3"},{"bufferView":114,"componentType":5126,"count":5172,"max":[0.9942499399185181,0.9982916116714478,0.9997119307518005],"min":[-0.9942498803138733,-0.9999875426292419,-0.9974980354309082],"type":"VEC3"},{"bufferView":115,"componentType":5125,"count":300,"max":[299.0],"min":[0.0],"type":"SCALAR"},{"bufferView":116,"componentType":5126,"count":300,"max":[0.36088690161705019,9.749031066894532,0.9122269153594971],"min":[-0.3361375331878662,9.558589935302735,0.11274650692939758],"type":"VEC3"},{"bufferView":117,"componentType":5126,"count":300,"max":[0.9999322891235352,0.1377757042646408,0.9904634952545166],"min":[-0.9998092651367188,-0.9971663951873779,-0.9904626607894898],"type":"VEC3"},{"bufferView":118,"componentType":5125,"count":240,"max":[239.0],"min":[0.0],"type":"SCALAR"},{"bufferView":119,"componentType":5126,"count":240,"max":[-0.24609363079071046,9.676871299743653,0.5071159601211548],"min":[-0.3268463611602783,9.567315101623536,0.4165755808353424],"type":"VEC3"},{"bufferView":120,"componentType":5126,"count":240,"max":[0.9987245202064514,0.9904689192771912,0.9984630942344666],"min":[-0.9985834360122681,-0.9904658198356628,-0.9985659718513489],"type":"VEC3"},{"bufferView":121,"componentType":5125,"count":240,"max":[239.0],"min":[0.0],"type":"SCALAR"},{"bufferView":122,"componentType":5126,"count":240,"max":[-0.23652347922325135,9.667781829833985,0.5773506164550781],"min":[-0.3225533366203308,9.557568550109864,0.48128247261047366],"type":"VEC3"},{"bufferView":123,"componentType":5126,"count":240,"max":[0.9928537011146545,0.9904694557189941,0.9908624291419983],"min":[-0.9927124381065369,-0.9904658198356628,-0.9909398555755615],"type":"VEC3"},{"bufferView":124,"componentType":5125,"count":240,"max":[239.0],"min":[0.0],"type":"SCALAR"},{"bufferView":125,"componentType":5126,"count":240,"max":[-0.21770012378692628,9.65865707397461,0.6500861644744873],"min":[-0.31147754192352297,9.547484397888184,0.5458739995956421],"type":"VEC3"},{"bufferView":126,"componentType":5126,"count":240,"max":[0.9714157581329346,0.9904693961143494,0.9634658694267273],"min":[-0.9712738394737244,-0.9904629588127136,-0.9634521007537842],"type":"VEC3"},{"bufferView":127,"componentType":5125,"count":240,"max":[239.0],"min":[0.0],"type":"SCALAR"},{"bufferView":128,"componentType":5126,"count":240,"max":[-0.19414302706718446,9.64978313446045,0.7181572318077087],"min":[-0.2925804853439331,9.538036346435547,0.6090207099914551],"type":"VEC3"},{"bufferView":129,"componentType":5126,"count":240,"max":[0.9467098712921143,0.9904652237892151,0.9325661063194275],"min":[-0.9465711712837219,-0.9904663562774658,-0.9325458407402039],"type":"VEC3"},{"bufferView":130,"componentType":5125,"count":240,"max":[239.0],"min":[0.0],"type":"SCALAR"},{"bufferView":131,"componentType":5126,"count":240,"max":[-0.15776807069778443,9.641657829284668,0.7840141654014587],"min":[-0.2644875943660736,9.528913497924805,0.6658670902252197],"type":"VEC3"},{"bufferView":132,"componentType":5126,"count":240,"max":[0.8382236361503601,0.9904652237892151,0.8043321371078491],"min":[-0.8380975723266602,-0.9904677867889404,-0.8065391778945923],"type":"VEC3"},{"bufferView":133,"componentType":5125,"count":228,"max":[131.0],"min":[0.0],"type":"SCALAR"},{"bufferView":134,"componentType":5126,"count":228,"max":[-0.11096715927124024,9.628782272338868,0.8453582525253296],"min":[-0.21755704283714295,9.486740112304688,0.7300581932067871],"type":"VEC3"},{"bufferView":135,"componentType":5126,"count":228,"max":[0.8005562424659729,0.9904670119285584,0.9813224077224731],"min":[-0.9685784578323364,-0.9904655814170837,-0.8440966606140137],"type":"VEC3"},{"bufferView":136,"componentType":5125,"count":228,"max":[131.0],"min":[0.0],"type":"SCALAR"},{"bufferView":137,"componentType":5126,"count":228,"max":[-0.04825589433312416,9.627130508422852,0.8856238126754761],"min":[-0.15196022391319276,9.498353958129883,0.7825257778167725],"type":"VEC3"},{"bufferView":138,"componentType":5126,"count":228,"max":[0.916131317615509,0.9996262192726135,0.9931591749191284],"min":[-0.9155293107032776,-0.9904595017433167,-0.9745398759841919],"type":"VEC3"},{"bufferView":139,"componentType":5125,"count":228,"max":[131.0],"min":[0.0],"type":"SCALAR"},{"bufferView":140,"componentType":5126,"count":228,"max":[0.019557669758796693,9.611573219299317,0.9024988412857056],"min":[-0.08099201321601868,9.488764762878418,0.821927011013031],"type":"VEC3"},{"bufferView":141,"componentType":5126,"count":228,"max":[0.9992697238922119,0.9999995827674866,0.9940981268882752],"min":[-0.9965587854385376,-0.999625027179718,-0.9952835440635681],"type":"VEC3"},{"bufferView":142,"componentType":5125,"count":228,"max":[127.0],"min":[0.0],"type":"SCALAR"},{"bufferView":143,"componentType":5126,"count":228,"max":[0.1081409603357315,9.611573219299317,0.9024988412857056],"min":[0.0075912754982709888,9.488764762878418,0.821927011013031],"type":"VEC3"},{"bufferView":144,"componentType":5126,"count":228,"max":[0.996559202671051,0.9999995827674866,0.9940981268882752],"min":[-0.9992697834968567,-0.9996253252029419,-0.9952835440635681],"type":"VEC3"},{"bufferView":145,"componentType":5125,"count":228,"max":[131.0],"min":[0.0],"type":"SCALAR"},{"bufferView":146,"componentType":5126,"count":228,"max":[0.17910918593406678,9.627130508422852,0.8856238126754761],"min":[0.07540484517812729,9.498353958129883,0.7825257778167725],"type":"VEC3"},{"bufferView":147,"componentType":5126,"count":228,"max":[0.9155319333076477,0.9974113702774048,0.9956016540527344],"min":[-0.9161306023597717,-0.99046391248703,-0.9745399951934815],"type":"VEC3"},{"bufferView":148,"componentType":5125,"count":228,"max":[131.0],"min":[0.0],"type":"SCALAR"},{"bufferView":149,"componentType":5126,"count":228,"max":[0.24470600485801698,9.628782272338868,0.8453582525253296],"min":[0.13811612129211427,9.486740112304688,0.7300581932067871],"type":"VEC3"},{"bufferView":150,"componentType":5126,"count":228,"max":[0.9685793519020081,0.9904670119285584,0.9813228845596314],"min":[-0.8005554676055908,-0.9904654026031494,-0.8440991640090942],"type":"VEC3"},{"bufferView":151,"componentType":5125,"count":240,"max":[239.0],"min":[0.0],"type":"SCALAR"},{"bufferView":152,"componentType":5126,"count":240,"max":[0.29163652658462527,9.641657829284668,0.7840141654014587],"min":[0.18491703271865846,9.528913497924805,0.6658670902252197],"type":"VEC3"},{"bufferView":153,"componentType":5126,"count":240,"max":[0.8380969166755676,0.9904674291610718,0.8043380975723267],"min":[-0.83822101354599,-0.9904659986495972,-0.8065449595451355],"type":"VEC3"},{"bufferView":154,"componentType":5125,"count":240,"max":[239.0],"min":[0.0],"type":"SCALAR"},{"bufferView":155,"componentType":5126,"count":240,"max":[0.31972938776016238,9.64978313446045,0.7181572318077087],"min":[0.22129198908805848,9.538036346435547,0.6090207099914551],"type":"VEC3"},{"bufferView":156,"componentType":5126,"count":240,"max":[0.9465718865394592,0.9904642701148987,0.9325640797615051],"min":[-0.9467104077339172,-0.9904665946960449,-0.9325464367866516],"type":"VEC3"},{"bufferView":157,"componentType":5125,"count":240,"max":[239.0],"min":[0.0],"type":"SCALAR"},{"bufferView":158,"componentType":5126,"count":240,"max":[0.3386264443397522,9.65865707397461,0.6500861644744873],"min":[0.2448490858078003,9.547484397888184,0.5458739995956421],"type":"VEC3"},{"bufferView":159,"componentType":5126,"count":240,"max":[0.9712744355201721,0.9904683232307434,0.9634663462638855],"min":[-0.9714154601097107,-0.9904625415802002,-0.9634506702423096],"type":"VEC3"},{"bufferView":160,"componentType":5125,"count":240,"max":[239.0],"min":[0.0],"type":"SCALAR"},{"bufferView":161,"componentType":5126,"count":240,"max":[0.34970226883888247,9.667781829833985,0.5773506164550781],"min":[0.2636723816394806,9.557568550109864,0.48128247261047366],"type":"VEC3"},{"bufferView":162,"componentType":5126,"count":240,"max":[0.9927125573158264,0.9904694557189941,0.9908623099327087],"min":[-0.9928537011146545,-0.9904656410217285,-0.9909397959709168],"type":"VEC3"},{"bufferView":163,"componentType":5125,"count":240,"max":[239.0],"min":[0.0],"type":"SCALAR"},{"bufferView":164,"componentType":5126,"count":240,"max":[0.35399529337882998,9.676871299743653,0.5071159601211548],"min":[0.2732425630092621,9.567315101623536,0.4165755808353424],"type":"VEC3"},{"bufferView":165,"componentType":5126,"count":240,"max":[0.9985832571983337,0.9904666543006897,0.9984630942344666],"min":[-0.9987244606018066,-0.9904655814170837,-0.9985660314559937],"type":"VEC3"},{"bufferView":166,"componentType":5125,"count":2280,"max":[2279.0],"min":[0.0],"type":"SCALAR"},{"bufferView":167,"componentType":5126,"count":2280,"max":[1.0,1.0,1.0000001192092896],"min":[-1.000000238418579,-1.0,-1.0000004768371583],"type":"VEC3"},{"bufferView":168,"componentType":5126,"count":2280,"max":[1.0,1.0,0.9999999403953552],"min":[-0.9999999403953552,-1.0,-1.0],"type":"VEC3"},{"bufferView":169,"componentType":5125,"count":2280,"max":[2279.0],"min":[0.0],"type":"SCALAR"},{"bufferView":170,"componentType":5126,"count":2280,"max":[1.0,1.0,1.0000001192092896],"min":[-1.000000238418579,-1.0,-1.0000004768371583],"type":"VEC3"},{"bufferView":171,"componentType":5126,"count":2280,"max":[1.0,1.0,0.9999999403953552],"min":[-0.9999999403953552,-1.0,-1.0],"type":"VEC3"},{"bufferView":172,"componentType":5125,"count":2280,"max":[2279.0],"min":[0.0],"type":"SCALAR"},{"bufferView":173,"componentType":5126,"count":2280,"max":[1.0,1.0,1.0000001192092896],"min":[-1.000000238418579,-1.0,-1.0000004768371583],"type":"VEC3"},{"bufferView":174,"componentType":5126,"count":2280,"max":[1.0,1.0,0.9999999403953552],"min":[-0.9999999403953552,-1.0,-1.0],"type":"VEC3"},{"bufferView":175,"componentType":5126,"count":151,"max":[5.0],"min":[0.0],"type":"SCALAR"},{"bufferView":176,"componentType":5126,"count":151,"max":[6.501586824469996e-9,2.675952615049937e-8,9.765521724602877e-11],"min":[-2.2712018932224966e-8,-2.4523318931102269e-9,9.765521724602877e-11],"type":"VEC3"},{"bufferView":177,"componentType":5126,"count":151,"max":[4.329780301713277e-17,0.7071067690849304,0.7071067690849304,4.329780301713277e-17],"min":[-0.7071067690849304,-0.7067579030990601,-0.7067579030990601,-0.7071067690849304],"type":"VEC4"},{"bufferView":178,"componentType":5126,"count":151,"max":[0.009999999776482582,0.009999999776482582,0.009999999776482582],"min":[0.009999999776482582,0.009999999776482582,0.009999999776482582],"type":"VEC3"}],"animations":[{"name":"Take 001","channels":[{"sampler":0,"target":{"node":6,"path":"scale"}},{"sampler":1,"target":{"node":6,"path":"translation"}},{"sampler":2,"target":{"node":6,"path":"rotation"}}],"samplers":[{"input":175,"interpolation":"LINEAR","output":178},{"input":175,"interpolation":"LINEAR","output":176},{"input":175,"interpolation":"LINEAR","output":177}]}],"asset":{"generator":"SimLab GLTF","version":"2.0"},"bufferViews":[{"buffer":0,"byteLength":12024,"target":34963},{"buffer":0,"byteLength":36072,"byteOffset":12024,"byteStride":12,"target":34962},{"buffer":0,"byteLength":36072,"byteOffset":48096,"byteStride":12,"target":34962},{"buffer":0,"byteLength":24048,"byteOffset":84168,"byteStride":8,"target":34962},{"buffer":0,"byteLength":12024,"byteOffset":108216,"target":34963},{"buffer":0,"byteLength":36072,"byteOffset":120240,"byteStride":12,"target":34962},{"buffer":0,"byteLength":36072,"byteOffset":156312,"byteStride":12,"target":34962},{"buffer":0,"byteLength":24048,"byteOffset":192384,"byteStride":8,"target":34962},{"buffer":0,"byteLength":10560,"byteOffset":216432,"target":34963},{"buffer":0,"byteLength":31680,"byteOffset":226992,"byteStride":12,"target":34962},{"buffer":0,"byteLength":31680,"byteOffset":258672,"byteStride":12,"target":34962},{"buffer":0,"byteLength":10560,"byteOffset":290352,"target":34963},{"buffer":0,"byteLength":31680,"byteOffset":300912,"byteStride":12,"target":34962},{"buffer":0,"byteLength":31680,"byteOffset":332592,"byteStride":12,"target":34962},{"buffer":0,"byteLength":10560,"byteOffset":364272,"target":34963},{"buffer":0,"byteLength":31680,"byteOffset":374832,"byteStride":12,"target":34962},{"buffer":0,"byteLength":31680,"byteOffset":406512,"byteStride":12,"target":34962},{"buffer":0,"byteLength":10560,"byteOffset":438192,"target":34963},{"buffer":0,"byteLength":31680,"byteOffset":448752,"byteStride":12,"target":34962},{"buffer":0,"byteLength":31680,"byteOffset":480432,"byteStride":12,"target":34962},{"buffer":0,"byteLength":10560,"byteOffset":512112,"target":34963},{"buffer":0,"byteLength":31680,"byteOffset":522672,"byteStride":12,"target":34962},{"buffer":0,"byteLength":31680,"byteOffset":554352,"byteStride":12,"target":34962},{"buffer":0,"byteLength":45888,"byteOffset":586032,"target":34963},{"buffer":0,"byteLength":137664,"byteOffset":631920,"byteStride":12,"target":34962},{"buffer":0,"byteLength":137664,"byteOffset":769584,"byteStride":12,"target":34962},{"buffer":0,"byteLength":38400,"byteOffset":907248,"target":34963},{"buffer":0,"byteLength":115200,"byteOffset":945648,"byteStride":12,"target":34962},{"buffer":0,"byteLength":115200,"byteOffset":1060848,"byteStride":12,"target":34962},{"buffer":0,"byteLength":960,"byteOffset":1176048,"target":34963},{"buffer":0,"byteLength":2880,"byteOffset":1177008,"byteStride":12,"target":34962},{"buffer":0,"byteLength":2880,"byteOffset":1179888,"byteStride":12,"target":34962},{"buffer":0,"byteLength":960,"byteOffset":1182768,"target":34963},{"buffer":0,"byteLength":2880,"byteOffset":1183728,"byteStride":12,"target":34962},{"buffer":0,"byteLength":2880,"byteOffset":1186608,"byteStride":12,"target":34962},{"buffer":0,"byteLength":960,"byteOffset":1189488,"target":34963},{"buffer":0,"byteLength":2880,"byteOffset":1190448,"byteStride":12,"target":34962},{"buffer":0,"byteLength":2880,"byteOffset":1193328,"byteStride":12,"target":34962},{"buffer":0,"byteLength":960,"byteOffset":1196208,"target":34963},{"buffer":0,"byteLength":2880,"byteOffset":1197168,"byteStride":12,"target":34962},{"buffer":0,"byteLength":2880,"byteOffset":1200048,"byteStride":12,"target":34962},{"buffer":0,"byteLength":960,"byteOffset":1202928,"target":34963},{"buffer":0,"byteLength":2880,"byteOffset":1203888,"byteStride":12,"target":34962},{"buffer":0,"byteLength":2880,"byteOffset":1206768,"byteStride":12,"target":34962},{"buffer":0,"byteLength":960,"byteOffset":1209648,"target":34963},{"buffer":0,"byteLength":2880,"byteOffset":1210608,"byteStride":12,"target":34962},{"buffer":0,"byteLength":2880,"byteOffset":1213488,"byteStride":12,"target":34962},{"buffer":0,"byteLength":960,"byteOffset":1216368,"target":34963},{"buffer":0,"byteLength":2880,"byteOffset":1217328,"byteStride":12,"target":34962},{"buffer":0,"byteLength":2880,"byteOffset":1220208,"byteStride":12,"target":34962},{"buffer":0,"byteLength":960,"byteOffset":1223088,"target":34963},{"buffer":0,"byteLength":2880,"byteOffset":1224048,"byteStride":12,"target":34962},{"buffer":0,"byteLength":2880,"byteOffset":1226928,"byteStride":12,"target":34962},{"buffer":0,"byteLength":912,"byteOffset":1229808,"target":34963},{"buffer":0,"byteLength":2736,"byteOffset":1230720,"byteStride":12,"target":34962},{"buffer":0,"byteLength":2736,"byteOffset":1233456,"byteStride":12,"target":34962},{"buffer":0,"byteLength":912,"byteOffset":1236192,"target":34963},{"buffer":0,"byteLength":2736,"byteOffset":1237104,"byteStride":12,"target":34962},{"buffer":0,"byteLength":2736,"byteOffset":1239840,"byteStride":12,"target":34962},{"buffer":0,"byteLength":912,"byteOffset":1242576,"target":34963},{"buffer":0,"byteLength":2736,"byteOffset":1243488,"byteStride":12,"target":34962},{"buffer":0,"byteLength":2736,"byteOffset":1246224,"byteStride":12,"target":34962},{"buffer":0,"byteLength":912,"byteOffset":1248960,"target":34963},{"buffer":0,"byteLength":2736,"byteOffset":1249872,"byteStride":12,"target":34962},{"buffer":0,"byteLength":2736,"byteOffset":1252608,"byteStride":12,"target":34962},{"buffer":0,"byteLength":960,"byteOffset":1255344,"target":34963},{"buffer":0,"byteLength":2880,"byteOffset":1256304,"byteStride":12,"target":34962},{"buffer":0,"byteLength":2880,"byteOffset":1259184,"byteStride":12,"target":34962},{"buffer":0,"byteLength":912,"byteOffset":1262064,"target":34963},{"buffer":0,"byteLength":2736,"byteOffset":1262976,"byteStride":12,"target":34962},{"buffer":0,"byteLength":2736,"byteOffset":1265712,"byteStride":12,"target":34962},{"buffer":0,"byteLength":960,"byteOffset":1268448,"target":34963},{"buffer":0,"byteLength":2880,"byteOffset":1269408,"byteStride":12,"target":34962},{"buffer":0,"byteLength":2880,"byteOffset":1272288,"byteStride":12,"target":34962},{"buffer":0,"byteLength":912,"byteOffset":1275168,"target":34963},{"buffer":0,"byteLength":2736,"byteOffset":1276080,"byteStride":12,"target":34962},{"buffer":0,"byteLength":2736,"byteOffset":1278816,"byteStride":12,"target":34962},{"buffer":0,"byteLength":9120,"byteOffset":1281552,"target":34963},{"buffer":0,"byteLength":27360,"byteOffset":1290672,"byteStride":12,"target":34962},{"buffer":0,"byteLength":27360,"byteOffset":1318032,"byteStride":12,"target":34962},{"buffer":0,"byteLength":9120,"byteOffset":1345392,"target":34963},{"buffer":0,"byteLength":27360,"byteOffset":1354512,"byteStride":12,"target":34962},{"buffer":0,"byteLength":27360,"byteOffset":1381872,"byteStride":12,"target":34962},{"buffer":0,"byteLength":3096,"byteOffset":1409232,"target":34963},{"buffer":0,"byteLength":9288,"byteOffset":1412328,"byteStride":12,"target":34962},{"buffer":0,"byteLength":9288,"byteOffset":1421616,"byteStride":12,"target":34962},{"buffer":0,"byteLength":6192,"byteOffset":1430904,"byteStride":8,"target":34962},{"buffer":0,"byteLength":3096,"byteOffset":1437096,"target":34963},{"buffer":0,"byteLength":9288,"byteOffset":1440192,"byteStride":12,"target":34962},{"buffer":0,"byteLength":9288,"byteOffset":1449480,"byteStride":12,"target":34962},{"buffer":0,"byteLength":6192,"byteOffset":1458768,"byteStride":8,"target":34962},{"buffer":0,"byteLength":10560,"byteOffset":1464960,"target":34963},{"buffer":0,"byteLength":31680,"byteOffset":1475520,"byteStride":12,"target":34962},{"buffer":0,"byteLength":31680,"byteOffset":1507200,"byteStride":12,"target":34962},{"buffer":0,"byteLength":10560,"byteOffset":1538880,"target":34963},{"buffer":0,"byteLength":31680,"byteOffset":1549440,"byteStride":12,"target":34962},{"buffer":0,"byteLength":31680,"byteOffset":1581120,"byteStride":12,"target":34962},{"buffer":0,"byteLength":10560,"byteOffset":1612800,"target":34963},{"buffer":0,"byteLength":31680,"byteOffset":1623360,"byteStride":12,"target":34962},{"buffer":0,"byteLength":31680,"byteOffset":1655040,"byteStride":12,"target":34962},{"buffer":0,"byteLength":20544,"byteOffset":1686720,"target":34963},{"buffer":0,"byteLength":61632,"byteOffset":1707264,"byteStride":12,"target":34962},{"buffer":0,"byteLength":61632,"byteOffset":1768896,"byteStride":12,"target":34962},{"buffer":0,"byteLength":41088,"byteOffset":1830528,"byteStride":8,"target":34962},{"buffer":0,"byteLength":13728,"byteOffset":1871616,"target":34963},{"buffer":0,"byteLength":41184,"byteOffset":1885344,"byteStride":12,"target":34962},{"buffer":0,"byteLength":41184,"byteOffset":1926528,"byteStride":12,"target":34962},{"buffer":0,"byteLength":27456,"byteOffset":1967712,"byteStride":8,"target":34962},{"buffer":0,"byteLength":13728,"byteOffset":1995168,"target":34963},{"buffer":0,"byteLength":41184,"byteOffset":2008896,"byteStride":12,"target":34962},{"buffer":0,"byteLength":41184,"byteOffset":2050080,"byteStride":12,"target":34962},{"buffer":0,"byteLength":27456,"byteOffset":2091264,"byteStride":8,"target":34962},{"buffer":0,"byteLength":20688,"byteOffset":2118720,"target":34963},{"buffer":0,"byteLength":62064,"byteOffset":2139408,"byteStride":12,"target":34962},{"buffer":0,"byteLength":62064,"byteOffset":2201472,"byteStride":12,"target":34962},{"buffer":0,"byteLength":1200,"byteOffset":2263536,"target":34963},{"buffer":0,"byteLength":3600,"byteOffset":2264736,"byteStride":12,"target":34962},{"buffer":0,"byteLength":3600,"byteOffset":2268336,"byteStride":12,"target":34962},{"buffer":0,"byteLength":960,"byteOffset":2271936,"target":34963},{"buffer":0,"byteLength":2880,"byteOffset":2272896,"byteStride":12,"target":34962},{"buffer":0,"byteLength":2880,"byteOffset":2275776,"byteStride":12,"target":34962},{"buffer":0,"byteLength":960,"byteOffset":2278656,"target":34963},{"buffer":0,"byteLength":2880,"byteOffset":2279616,"byteStride":12,"target":34962},{"buffer":0,"byteLength":2880,"byteOffset":2282496,"byteStride":12,"target":34962},{"buffer":0,"byteLength":960,"byteOffset":2285376,"target":34963},{"buffer":0,"byteLength":2880,"byteOffset":2286336,"byteStride":12,"target":34962},{"buffer":0,"byteLength":2880,"byteOffset":2289216,"byteStride":12,"target":34962},{"buffer":0,"byteLength":960,"byteOffset":2292096,"target":34963},{"buffer":0,"byteLength":2880,"byteOffset":2293056,"byteStride":12,"target":34962},{"buffer":0,"byteLength":2880,"byteOffset":2295936,"byteStride":12,"target":34962},{"buffer":0,"byteLength":960,"byteOffset":2298816,"target":34963},{"buffer":0,"byteLength":2880,"byteOffset":2299776,"byteStride":12,"target":34962},{"buffer":0,"byteLength":2880,"byteOffset":2302656,"byteStride":12,"target":34962},{"buffer":0,"byteLength":912,"byteOffset":2305536,"target":34963},{"buffer":0,"byteLength":2736,"byteOffset":2306448,"byteStride":12,"target":34962},{"buffer":0,"byteLength":2736,"byteOffset":2309184,"byteStride":12,"target":34962},{"buffer":0,"byteLength":912,"byteOffset":2311920,"target":34963},{"buffer":0,"byteLength":2736,"byteOffset":2312832,"byteStride":12,"target":34962},{"buffer":0,"byteLength":2736,"byteOffset":2315568,"byteStride":12,"target":34962},{"buffer":0,"byteLength":912,"byteOffset":2318304,"target":34963},{"buffer":0,"byteLength":2736,"byteOffset":2319216,"byteStride":12,"target":34962},{"buffer":0,"byteLength":2736,"byteOffset":2321952,"byteStride":12,"target":34962},{"buffer":0,"byteLength":912,"byteOffset":2324688,"target":34963},{"buffer":0,"byteLength":2736,"byteOffset":2325600,"byteStride":12,"target":34962},{"buffer":0,"byteLength":2736,"byteOffset":2328336,"byteStride":12,"target":34962},{"buffer":0,"byteLength":912,"byteOffset":2331072,"target":34963},{"buffer":0,"byteLength":2736,"byteOffset":2331984,"byteStride":12,"target":34962},{"buffer":0,"byteLength":2736,"byteOffset":2334720,"byteStride":12,"target":34962},{"buffer":0,"byteLength":912,"byteOffset":2337456,"target":34963},{"buffer":0,"byteLength":2736,"byteOffset":2338368,"byteStride":12,"target":34962},{"buffer":0,"byteLength":2736,"byteOffset":2341104,"byteStride":12,"target":34962},{"buffer":0,"byteLength":960,"byteOffset":2343840,"target":34963},{"buffer":0,"byteLength":2880,"byteOffset":2344800,"byteStride":12,"target":34962},{"buffer":0,"byteLength":2880,"byteOffset":2347680,"byteStride":12,"target":34962},{"buffer":0,"byteLength":960,"byteOffset":2350560,"target":34963},{"buffer":0,"byteLength":2880,"byteOffset":2351520,"byteStride":12,"target":34962},{"buffer":0,"byteLength":2880,"byteOffset":2354400,"byteStride":12,"target":34962},{"buffer":0,"byteLength":960,"byteOffset":2357280,"target":34963},{"buffer":0,"byteLength":2880,"byteOffset":2358240,"byteStride":12,"target":34962},{"buffer":0,"byteLength":2880,"byteOffset":2361120,"byteStride":12,"target":34962},{"buffer":0,"byteLength":960,"byteOffset":2364000,"target":34963},{"buffer":0,"byteLength":2880,"byteOffset":2364960,"byteStride":12,"target":34962},{"buffer":0,"byteLength":2880,"byteOffset":2367840,"byteStride":12,"target":34962},{"buffer":0,"byteLength":960,"byteOffset":2370720,"target":34963},{"buffer":0,"byteLength":2880,"byteOffset":2371680,"byteStride":12,"target":34962},{"buffer":0,"byteLength":2880,"byteOffset":2374560,"byteStride":12,"target":34962},{"buffer":0,"byteLength":9120,"byteOffset":2377440,"target":34963},{"buffer":0,"byteLength":27360,"byteOffset":2386560,"byteStride":12,"target":34962},{"buffer":0,"byteLength":27360,"byteOffset":2413920,"byteStride":12,"target":34962},{"buffer":0,"byteLength":9120,"byteOffset":2441280,"target":34963},{"buffer":0,"byteLength":27360,"byteOffset":2450400,"byteStride":12,"target":34962},{"buffer":0,"byteLength":27360,"byteOffset":2477760,"byteStride":12,"target":34962},{"buffer":0,"byteLength":9120,"byteOffset":2505120,"target":34963},{"buffer":0,"byteLength":27360,"byteOffset":2514240,"byteStride":12,"target":34962},{"buffer":0,"byteLength":27360,"byteOffset":2541600,"byteStride":12,"target":34962},{"buffer":0,"byteLength":604,"byteOffset":2568960,"byteStride":4},{"buffer":0,"byteLength":1812,"byteOffset":2569564,"byteStride":12},{"buffer":0,"byteLength":2416,"byteOffset":2571376,"byteStride":16},{"buffer":0,"byteLength":1812,"byteOffset":2573792,"byteStride":12}],"buffers":[{"byteLength":2575604,"uri":"christmasbaby.bin"}],"extensionsUsed":["KHR_materials_pbrSpecularGlossiness"],"images":[{"mimeType":"image/jpeg","uri":"Textures/Combined_left2.JPG"},{"mimeType":"image/png","uri":"Textures/initialShadingGroup_Normal.png"},{"mimeType":"image/png","uri":"Textures/Combined_initialShadingGroup_Metallic.png"},{"mimeType":"image/png","uri":"Textures/standardSurface8SG_Normal.png"},{"mimeType":"image/png","uri":"Textures/Combined_standardSurface8SG_Metallic.png"},{"mimeType":"image/png","uri":"Textures/polySurface46SG_Normal.png"},{"mimeType":"image/png","uri":"Textures/Combined_polySurface46SG_Metallic.png"}],"materials":[{"extensions":{"KHR_materials_pbrSpecularGlossiness":{"diffuseFactor":[0.699999988079071,0.699999988079071,0.699999988079071,1.0],"specularFactor":[0.009999999776482582,0.009999999776482582,0.009999999776482582],"glossinessFactor":0.5}},"name":"handright3","alphaMode":"MASK","doubleSided":true,"pbrMetallicRoughness":{"baseColorFactor":[0.699999988079071,0.699999988079071,0.699999988079071,1.0],"metallicFactor":0.0,"metallicRoughnessTexture":{"index":0},"roughnessFactor":0.5}},{"extensions":{"KHR_materials_pbrSpecularGlossiness":{"diffuseFactor":[0.699999988079071,0.699999988079071,0.699999988079071,1.0],"specularFactor":[0.009999999776482582,0.009999999776482582,0.009999999776482582],"glossinessFactor":0.5}},"name":"handleft2","alphaMode":"MASK","doubleSided":true,"pbrMetallicRoughness":{"baseColorFactor":[0.699999988079071,0.699999988079071,0.699999988079071,1.0],"metallicFactor":0.0,"metallicRoughnessTexture":{"index":0},"roughnessFactor":0.5}},{"extensions":{"KHR_materials_pbrSpecularGlossiness":{"diffuseFactor":[0.699999988079071,0.699999988079071,0.699999988079071,1.0],"specularFactor":[0.5949999690055847,0.5949999690055847,0.5949999690055847],"glossinessFactor":0.8500000238418579}},"name":"bells3","alphaMode":"MASK","doubleSided":true,"pbrMetallicRoughness":{"baseColorFactor":[0.699999988079071,0.699999988079071,0.699999988079071,1.0],"roughnessFactor":0.15000000596046449}},{"extensions":{"KHR_materials_pbrSpecularGlossiness":{"diffuseFactor":[0.699999988079071,0.699999988079071,0.699999988079071,1.0],"specularFactor":[0.5681159496307373,0.5681159496307373,0.5681159496307373],"glossinessFactor":0.8115941882133484}},"name":"goldcone4","alphaMode":"MASK","doubleSided":true,"pbrMetallicRoughness":{"baseColorFactor":[0.699999988079071,0.699999988079071,0.699999988079071,1.0],"roughnessFactor":0.18840579688549043}},{"extensions":{"KHR_materials_pbrSpecularGlossiness":{"diffuseFactor":[0.699999988079071,0.699999988079071,0.699999988079071,1.0],"specularFactor":[0.009999999776482582,0.009999999776482582,0.009999999776482582],"glossinessFactor":0.5}},"name":"felt","alphaMode":"MASK","doubleSided":true,"pbrMetallicRoughness":{"baseColorFactor":[0.699999988079071,0.699999988079071,0.699999988079071,1.0],"metallicFactor":0.0,"roughnessFactor":0.5}},{"extensions":{"KHR_materials_pbrSpecularGlossiness":{"diffuseFactor":[0.699999988079071,0.699999988079071,0.699999988079071,1.0],"specularFactor":[0.009999999776482582,0.009999999776482582,0.009999999776482582],"glossinessFactor":0.5}},"name":"standardSurface20","alphaMode":"MASK","doubleSided":true,"pbrMetallicRoughness":{"baseColorFactor":[0.699999988079071,0.699999988079071,0.699999988079071,1.0],"metallicFactor":0.0,"roughnessFactor":0.5}},{"extensions":{"KHR_materials_pbrSpecularGlossiness":{"diffuseFactor":[0.699999988079071,0.699999988079071,0.699999988079071,1.0],"specularFactor":[0.009999999776482582,0.009999999776482582,0.009999999776482582],"glossinessFactor":1.0}},"name":"eyeleft3","alphaMode":"MASK","doubleSided":true,"pbrMetallicRoughness":{"baseColorFactor":[0.699999988079071,0.699999988079071,0.699999988079071,1.0],"metallicFactor":0.0,"roughnessFactor":0.0}},{"extensions":{"KHR_materials_pbrSpecularGlossiness":{"diffuseFactor":[0.699999988079071,0.699999988079071,0.699999988079071,1.0],"specularFactor":[0.009999999776482582,0.009999999776482582,0.009999999776482582],"glossinessFactor":0.5}},"name":"shoes3","alphaMode":"MASK","doubleSided":true,"normalTexture":{"index":1},"pbrMetallicRoughness":{"baseColorFactor":[0.699999988079071,0.699999988079071,0.699999988079071,1.0],"metallicFactor":0.0,"metallicRoughnessTexture":{"index":2},"roughnessFactor":0.5}},{"extensions":{"KHR_materials_pbrSpecularGlossiness":{"diffuseFactor":[0.699999988079071,0.699999988079071,0.699999988079071,1.0],"specularFactor":[0.009999999776482582,0.009999999776482582,0.009999999776482582],"glossinessFactor":0.06521737575531006}},"name":"clothes2","alphaMode":"MASK","doubleSided":true,"normalTexture":{"index":3},"pbrMetallicRoughness":{"baseColorFactor":[0.699999988079071,0.699999988079071,0.699999988079071,1.0],"metallicFactor":0.0,"metallicRoughnessTexture":{"index":4},"roughnessFactor":0.9347826242446899}},{"extensions":{"KHR_materials_pbrSpecularGlossiness":{"diffuseFactor":[0.699999988079071,0.699999988079071,0.699999988079071,1.0],"specularFactor":[0.009999999776482582,0.009999999776482582,0.009999999776482582],"glossinessFactor":0.5}},"name":"muffers","alphaMode":"MASK","doubleSided":true,"normalTexture":{"index":5},"pbrMetallicRoughness":{"baseColorFactor":[0.699999988079071,0.699999988079071,0.699999988079071,1.0],"metallicFactor":0.0,"metallicRoughnessTexture":{"index":6},"roughnessFactor":0.5}},{"extensions":{"KHR_materials_pbrSpecularGlossiness":{"diffuseFactor":[0.699999988079071,0.699999988079071,0.699999988079071,1.0],"specularFactor":[0.009999999776482582,0.009999999776482582,0.009999999776482582],"glossinessFactor":0.5}},"name":"standardSurface21","alphaMode":"MASK","doubleSided":true,"pbrMetallicRoughness":{"baseColorFactor":[0.699999988079071,0.699999988079071,0.699999988079071,1.0],"metallicFactor":0.0,"roughnessFactor":0.5}},{"extensions":{"KHR_materials_pbrSpecularGlossiness":{"diffuseFactor":[0.699999988079071,0.699999988079071,0.699999988079071,1.0],"specularFactor":[0.009999999776482582,0.009999999776482582,0.009999999776482582],"glossinessFactor":0.5}},"name":"standardSurface1","alphaMode":"MASK","doubleSided":true,"pbrMetallicRoughness":{"baseColorFactor":[0.699999988079071,0.699999988079071,0.699999988079071,1.0],"metallicFactor":0.0,"roughnessFactor":0.5}},{"extensions":{"KHR_materials_pbrSpecularGlossiness":{"diffuseFactor":[0.699999988079071,0.699999988079071,0.699999988079071,1.0],"specularFactor":[0.699999988079071,0.699999988079071,0.699999988079071],"glossinessFactor":1.0}},"name":"standardSurface22","alphaMode":"MASK","doubleSided":true,"pbrMetallicRoughness":{"baseColorFactor":[0.699999988079071,0.699999988079071,0.699999988079071,1.0],"roughnessFactor":0.0}}],"meshes":[{"primitives":[{"attributes":{"NORMAL":2,"POSITION":1,"TEXCOORD_0":3},"indices":0,"material":0,"mode":4}]},{"primitives":[{"attributes":{"NORMAL":6,"POSITION":5,"TEXCOORD_0":7},"indices":4,"material":1,"mode":4}]},{"primitives":[{"attributes":{"NORMAL":10,"POSITION":9},"indices":8,"material":2,"mode":4}]},{"primitives":[{"attributes":{"NORMAL":13,"POSITION":12},"indices":11,"material":2,"mode":4}]},{"primitives":[{"attributes":{"NORMAL":16,"POSITION":15},"indices":14,"material":2,"mode":4}]},{"primitives":[{"attributes":{"NORMAL":19,"POSITION":18},"indices":17,"material":2,"mode":4}]},{"primitives":[{"attributes":{"NORMAL":22,"POSITION":21},"indices":20,"material":2,"mode":4}]},{"primitives":[{"attributes":{"NORMAL":25,"POSITION":24},"indices":23,"material":3,"mode":4}]},{"primitives":[{"attributes":{"NORMAL":28,"POSITION":27},"indices":26,"material":4,"mode":4}]},{"primitives":[{"attributes":{"NORMAL":31,"POSITION":30},"indices":29,"material":5,"mode":4}]},{"primitives":[{"attributes":{"NORMAL":34,"POSITION":33},"indices":32,"material":5,"mode":4}]},{"primitives":[{"attributes":{"NORMAL":37,"POSITION":36},"indices":35,"material":5,"mode":4}]},{"primitives":[{"attributes":{"NORMAL":40,"POSITION":39},"indices":38,"material":5,"mode":4}]},{"primitives":[{"attributes":{"NORMAL":43,"POSITION":42},"indices":41,"material":5,"mode":4}]},{"primitives":[{"attributes":{"NORMAL":46,"POSITION":45},"indices":44,"material":5,"mode":4}]},{"primitives":[{"attributes":{"NORMAL":49,"POSITION":48},"indices":47,"material":5,"mode":4}]},{"primitives":[{"attributes":{"NORMAL":52,"POSITION":51},"indices":50,"material":5,"mode":4}]},{"primitives":[{"attributes":{"NORMAL":55,"POSITION":54},"indices":53,"material":5,"mode":4}]},{"primitives":[{"attributes":{"NORMAL":58,"POSITION":57},"indices":56,"material":5,"mode":4}]},{"primitives":[{"attributes":{"NORMAL":61,"POSITION":60},"indices":59,"material":5,"mode":4}]},{"primitives":[{"attributes":{"NORMAL":64,"POSITION":63},"indices":62,"material":5,"mode":4}]},{"primitives":[{"attributes":{"NORMAL":67,"POSITION":66},"indices":65,"material":5,"mode":4}]},{"primitives":[{"attributes":{"NORMAL":70,"POSITION":69},"indices":68,"material":5,"mode":4}]},{"primitives":[{"attributes":{"NORMAL":73,"POSITION":72},"indices":71,"material":5,"mode":4}]},{"primitives":[{"attributes":{"NORMAL":76,"POSITION":75},"indices":74,"material":5,"mode":4}]},{"primitives":[{"attributes":{"NORMAL":79,"POSITION":78},"indices":77,"material":6,"mode":4}]},{"primitives":[{"attributes":{"NORMAL":82,"POSITION":81},"indices":80,"material":6,"mode":4}]},{"primitives":[{"attributes":{"NORMAL":85,"POSITION":84,"TEXCOORD_0":86},"indices":83,"material":7,"mode":4}]},{"primitives":[{"attributes":{"NORMAL":89,"POSITION":88,"TEXCOORD_0":90},"indices":87,"material":7,"mode":4}]},{"primitives":[{"attributes":{"NORMAL":93,"POSITION":92},"indices":91,"material":2,"mode":4}]},{"primitives":[{"attributes":{"NORMAL":96,"POSITION":95},"indices":94,"material":2,"mode":4}]},{"primitives":[{"attributes":{"NORMAL":99,"POSITION":98},"indices":97,"material":2,"mode":4}]},{"primitives":[{"attributes":{"NORMAL":102,"POSITION":101,"TEXCOORD_0":103},"indices":100,"material":8,"mode":4}]},{"primitives":[{"attributes":{"NORMAL":106,"POSITION":105,"TEXCOORD_0":107},"indices":104,"material":9,"mode":4}]},{"primitives":[{"attributes":{"NORMAL":110,"POSITION":109,"TEXCOORD_0":111},"indices":108,"material":9,"mode":4}]},{"primitives":[{"attributes":{"NORMAL":114,"POSITION":113},"indices":112,"material":10,"mode":4}]},{"primitives":[{"attributes":{"NORMAL":117,"POSITION":116},"indices":115,"material":5,"mode":4}]},{"primitives":[{"attributes":{"NORMAL":120,"POSITION":119},"indices":118,"material":5,"mode":4}]},{"primitives":[{"attributes":{"NORMAL":123,"POSITION":122},"indices":121,"material":5,"mode":4}]},{"primitives":[{"attributes":{"NORMAL":126,"POSITION":125},"indices":124,"material":5,"mode":4}]},{"primitives":[{"attributes":{"NORMAL":129,"POSITION":128},"indices":127,"material":5,"mode":4}]},{"primitives":[{"attributes":{"NORMAL":132,"POSITION":131},"indices":130,"material":5,"mode":4}]},{"primitives":[{"attributes":{"NORMAL":135,"POSITION":134},"indices":133,"material":5,"mode":4}]},{"primitives":[{"attributes":{"NORMAL":138,"POSITION":137},"indices":136,"material":5,"mode":4}]},{"primitives":[{"attributes":{"NORMAL":141,"POSITION":140},"indices":139,"material":5,"mode":4}]},{"primitives":[{"attributes":{"NORMAL":144,"POSITION":143},"indices":142,"material":5,"mode":4}]},{"primitives":[{"attributes":{"NORMAL":147,"POSITION":146},"indices":145,"material":5,"mode":4}]},{"primitives":[{"attributes":{"NORMAL":150,"POSITION":149},"indices":148,"material":5,"mode":4}]},{"primitives":[{"attributes":{"NORMAL":153,"POSITION":152},"indices":151,"material":5,"mode":4}]},{"primitives":[{"attributes":{"NORMAL":156,"POSITION":155},"indices":154,"material":5,"mode":4}]},{"primitives":[{"attributes":{"NORMAL":159,"POSITION":158},"indices":157,"material":5,"mode":4}]},{"primitives":[{"attributes":{"NORMAL":162,"POSITION":161},"indices":160,"material":5,"mode":4}]},{"primitives":[{"attributes":{"NORMAL":165,"POSITION":164},"indices":163,"material":5,"mode":4}]},{"primitives":[{"attributes":{"NORMAL":168,"POSITION":167},"indices":166,"material":11,"mode":4}]},{"primitives":[{"attributes":{"NORMAL":171,"POSITION":170},"indices":169,"material":12,"mode":4}]},{"primitives":[{"attributes":{"NORMAL":174,"POSITION":173},"indices":172,"material":11,"mode":4}]}],"nodes":[{"children":[1,2,3,4,5,6,81,84,86],"matrix":[1.0,0.0,0.0,0.0,0.0,4.4896593387466768e-11,-1.0,0.0,0.0,1.0,4.4896593387466768e-11,0.0,0.0,0.0,0.0,1.0]},{"extras":{},"name":"camera1","rotation":[-0.7071067690849304,0.0,0.0,-0.7071067690849304],"translation":[0.0,-0.3369465172290802,0.06769003719091416]},{"extras":{},"name":"front","rotation":[-0.7071067690849304,8.306396477759936e-13,8.306394851456678e-13,-0.7071067690849304],"translation":[-0.01071875635534525,-1.2612029314041138,0.001736193778924644]},{"extras":{},"name":"persp","rotation":[-0.7217426300048828,0.005038795992732048,0.004832031670957804,-0.6921263337135315],"translation":[0.00807497650384903,-0.9842286705970764,-0.012373365461826325]},{"extras":{},"name":"side","rotation":[-0.6156913042068481,-0.08215076476335526,-0.10364846885204315,-0.7768091559410095],"translation":[0.09215103089809418,-0.33642086386680605,0.14545394480228425]},{"extras":{},"name":"top","rotation":[-0.5,0.5,0.5,-0.5],"translation":[-0.4068264961242676,0.0,0.07398732751607895]},{"extras":{},"name":"group29","children":[7,9,11,23,25,42,47,52,59,60,61,62,63],"matrix":[0.009981004521250725,0.0006160744815133512,-3.772368169540593e-20,0.0,0.0,6.12323395273311e-19,0.009999999776482582,0.0,0.0006160744815133512,-0.009981004521250725,6.111602759344848e-19,0.0,7.334645668599649e-10,5.223279586630269e-10,0.0,1.0]},{"extras":{},"name":"hand_l","children":[8],"rotation":[-6.381896949193621e-19,3.3500062074040199e-18,-0.2874358892440796,-0.9577999114990234],"translation":[-4.495736598968506,5.857810974121094,-0.1462363600730896]},{"extras":{},"name":"Assembly-5","mesh":0,"rotation":[0.0,0.0,0.0,-1.0]},{"extras":{},"name":"hand_r","children":[10],"rotation":[-6.381896949193621e-19,3.3500062074040199e-18,-0.2874358892440796,-0.9577999114990234],"translation":[-4.495736598968506,5.857810974121094,-0.1462363600730896]},{"extras":{},"name":"Assembly-9","mesh":1,"rotation":[0.0,0.0,0.0,-1.0]},{"extras":{},"name":"hat","children":[12,14,16,18,20,22],"rotation":[0.0,0.0,0.0,-1.0]},{"extras":{},"name":"bell_4","children":[13],"rotation":[0.17741014063358308,0.16560612618923188,0.5789687633514404,-0.7783928513526917],"translation":[3.6069300174713136,11.872474670410157,-1.2181504964828492]},{"extras":{},"name":"Assembly-13","mesh":2,"rotation":[0.0,0.0,0.0,-1.0]},{"extras":{},"name":"bell_3","children":[15],"rotation":[0.05331616476178169,0.1926543116569519,-0.010469211265444756,-0.9797612428665161],"translation":[2.4411379425585794e-15,14.433079719543457,-0.8111187815666199]},{"extras":{},"name":"Assembly-15","mesh":3,"rotation":[0.0,0.0,0.0,-1.0]},{"extras":{},"name":"bell_5","children":[17],"rotation":[0.1433710753917694,0.0322926789522171,0.9068012833595276,-0.3951117694377899],"translation":[2.515803098678589,8.019729614257813,-0.9884015321731567]},{"extras":{},"name":"Assembly-17","mesh":4,"rotation":[0.0,0.0,0.0,-1.0]},{"extras":{},"name":"bell_1","children":[19],"rotation":[-0.13998033106327058,0.0783773884177208,-0.9087909460067749,-0.38517725467681887],"translation":[-2.573618173599243,8.018316268920899,-0.9888293743133545]},{"extras":{},"name":"Assembly-19","mesh":5,"rotation":[0.0,0.0,0.0,-1.0]},{"extras":{},"name":"bell_2","children":[21],"rotation":[-0.07287334650754929,0.14296096563339234,-0.5372865796089172,-0.8279944658279419],"translation":[-3.5939555168151857,11.943081855773926,-1.2181504964828492]},{"extras":{},"name":"Assembly-21","mesh":6,"rotation":[0.0,0.0,0.0,-1.0]},{"extras":{},"name":"Assembly-11","mesh":7,"rotation":[0.0,0.0,0.0,-1.0]},{"extras":{},"name":"collar","children":[24],"rotation":[-0.0,3.469446951953614e-18,-0.0,-1.0],"translation":[-4.715855933838317e-19,8.221444129943848,-0.1355157196521759]},{"extras":{},"name":"Assembly-27","mesh":8,"rotation":[0.0,0.0,0.0,-1.0]},{"extras":{},"name":"teeth_bottom_GP","children":[26,27,28,29,30,31,32,33,34,35,36,37,38,39,40,41],"rotation":[0.0,0.0,0.0,-1.0]},{"extras":{},"name":"tooth_b_l_4","mesh":9,"rotation":[0.0,0.0,0.0,-1.0]},{"extras":{},"name":"tooth_b_l_7","mesh":10,"rotation":[0.0,0.0,0.0,-1.0]},{"extras":{},"name":"tooth_b_r_7","mesh":11,"rotation":[0.0,0.0,0.0,-1.0]},{"extras":{},"name":"tooth_b_r_5","mesh":12,"rotation":[0.0,0.0,0.0,-1.0]},{"extras":{},"name":"tooth_b_r_6","mesh":13,"rotation":[0.0,0.0,0.0,-1.0]},{"extras":{},"name":"tooth_b_r_4","mesh":14,"rotation":[0.0,0.0,0.0,-1.0]},{"extras":{},"name":"tooth_b_l_5","mesh":15,"rotation":[0.0,0.0,0.0,-1.0]},{"extras":{},"name":"tooth_b_l_8","mesh":16,"rotation":[0.0,0.0,0.0,-1.0]},{"extras":{},"name":"tooth_b_r_3","mesh":17,"rotation":[0.0,0.0,0.0,-1.0]},{"extras":{},"name":"tooth_b_l_1","mesh":18,"rotation":[0.0,0.0,0.0,-1.0]},{"extras":{},"name":"tooth_b_r_2","mesh":19,"rotation":[0.0,0.0,0.0,-1.0]},{"extras":{},"name":"tooth_b_l_3","mesh":20,"rotation":[0.0,0.0,0.0,-1.0]},{"extras":{},"name":"tooth_b_r_8","mesh":21,"rotation":[0.0,0.0,0.0,-1.0]},{"extras":{},"name":"tooth_b_l_2","mesh":22,"rotation":[0.0,0.0,0.0,-1.0]},{"extras":{},"name":"tooth_b_l_6","mesh":23,"rotation":[0.0,0.0,0.0,-1.0]},{"extras":{},"name":"tooth_b_r_1","mesh":24,"rotation":[0.0,0.0,0.0,-1.0]},{"extras":{},"name":"eyeballs_GP","children":[43,45],"rotation":[0.0,0.0,0.0,-1.0]},{"extras":{},"name":"eyeball_r","children":[44],"rotation":[-0.7544168829917908,-0.058206189423799518,0.04650893062353134,-0.6521534323692322],"translation":[0.33022385835647585,10.388190269470215,0.46237999200820925]},{"extras":{},"name":"Assembly-100","mesh":25,"rotation":[0.0,0.0,0.0,-1.0]},{"extras":{},"name":"eyeball_l","children":[46],"rotation":[-0.7526933550834656,0.05474981293082237,-0.037651896476745608,-0.6550095677375794],"translation":[-0.3263857960700989,10.388190269470215,0.46237999200820925]},{"extras":{},"name":"Assembly-102","mesh":26,"rotation":[0.0,0.0,0.0,-1.0]},{"extras":{},"name":"shoes_GP","children":[48,50],"rotation":[0.0,0.0,0.0,-1.0]},{"extras":{},"name":"shoe_l","children":[49],"rotation":[3.222740455002168e-33,-0.2928121089935303,-1.2085277624613093e-33,-0.9561700224876404],"translation":[-1.0669070482254029,0.16987089812755586,0.17196914553642274]},{"extras":{},"name":"Assembly-105","mesh":27,"rotation":[0.0,0.0,0.0,-1.0]},{"extras":{},"name":"shoe_r","children":[51],"rotation":[3.222740455002168e-33,-0.2928121089935303,-1.2085277624613093e-33,-0.9561700224876404],"translation":[-1.0669070482254029,0.16987089812755586,0.17196914553642274]},{"extras":{},"name":"Assembly-107","mesh":28,"rotation":[0.0,0.0,0.0,-1.0]},{"extras":{},"name":"bells_shirt_GP","children":[53,55,57],"rotation":[0.0,0.0,0.0,-1.0]},{"extras":{},"name":"bell_shirt_1","children":[54],"rotation":[-0.5415815711021423,0.1608787477016449,0.10650499910116196,-0.818207859992981],"translation":[2.6454230194367666e-15,8.104463577270508,0.6104740500450134]},{"extras":{},"name":"Assembly-110","mesh":29,"rotation":[0.0,0.0,0.0,-1.0]},{"extras":{},"name":"bell_shirt_2","children":[56],"rotation":[-0.5415815711021423,0.1608787477016449,0.10650499910116196,-0.818207859992981],"translation":[3.0926318516315668e-15,7.277511119842529,0.921136200428009]},{"extras":{},"name":"Assembly-112","mesh":30,"rotation":[0.0,0.0,0.0,-1.0]},{"extras":{},"name":"bell_shirt_3","children":[58],"rotation":[-0.5415815711021423,0.1608787477016449,0.10650499910116196,-0.818207859992981],"translation":[3.1719206999999106e-15,6.492571830749512,1.25603187084198]},{"extras":{},"name":"Assembly-114","mesh":31,"rotation":[0.0,0.0,0.0,-1.0]},{"extras":{},"name":"pyjamas","mesh":32,"rotation":[0.0,0.0,0.0,-1.0]},{"extras":{},"name":"muff_r","mesh":33,"rotation":[0.0,0.0,0.0,-1.0]},{"extras":{},"name":"muuff_l","mesh":34,"rotation":[0.0,0.0,0.0,-1.0]},{"extras":{},"name":"face","mesh":35,"rotation":[0.0,0.0,0.0,-1.0]},{"extras":{},"name":"teeth_top_GP","children":[64,65,66,67,68,69,70,71,72,73,74,75,76,77,78,79,80],"rotation":[-3.0814879110195777e-33,-0.0,1.925929944387236e-34,-1.0],"translation":[-0.02199999988079071,-1.39318121091519e-35,-9.212145045880559e-20]},{"extras":{},"name":"Assembly-65","mesh":36,"rotation":[0.0,0.0,0.0,-1.0]},{"extras":{},"name":"polySurface2","mesh":37,"rotation":[0.0,0.0,0.0,-1.0]},{"extras":{},"name":"polySurface3","mesh":38,"rotation":[0.0,0.0,0.0,-1.0]},{"extras":{},"name":"polySurface4","mesh":39,"rotation":[0.0,0.0,0.0,-1.0]},{"extras":{},"name":"polySurface5","mesh":40,"rotation":[0.0,0.0,0.0,-1.0]},{"extras":{},"name":"polySurface6","mesh":41,"rotation":[0.0,0.0,0.0,-1.0]},{"extras":{},"name":"polySurface7","mesh":42,"rotation":[0.0,0.0,0.0,-1.0]},{"extras":{},"name":"polySurface8","mesh":43,"rotation":[0.0,0.0,0.0,-1.0]},{"extras":{},"name":"tooth_l_1","mesh":44,"rotation":[0.0,0.0,0.0,-1.0]},{"extras":{},"name":"polySurface17","mesh":45,"rotation":[0.0,0.0,0.0,-1.0]},{"extras":{},"name":"polySurface16","mesh":46,"rotation":[0.0,0.0,0.0,-1.0]},{"extras":{},"name":"polySurface15","mesh":47,"rotation":[0.0,0.0,0.0,-1.0]},{"extras":{},"name":"polySurface14","mesh":48,"rotation":[0.0,0.0,0.0,-1.0]},{"extras":{},"name":"polySurface13","mesh":49,"rotation":[0.0,0.0,0.0,-1.0]},{"extras":{},"name":"polySurface12","mesh":50,"rotation":[0.0,0.0,0.0,-1.0]},{"extras":{},"name":"polySurface11","mesh":51,"rotation":[0.0,0.0,0.0,-1.0]},{"extras":{},"name":"polySurface10","mesh":52,"rotation":[0.0,0.0,0.0,-1.0]},{"extras":{},"name":"group30","children":[82],"rotation":[-0.7071067690849304,0.0,0.0,-0.7071067690849304],"scale":[0.009999999776482582,0.009999999776482582,0.009999999776482582],"translation":[0.0,3.552713678800501e-15,-2.7755575615628916e-17]},{"extras":{},"name":"pasted__pSphere2","children":[83],"rotation":[0.0,0.0,0.0,-1.0],"translation":[0.0,10.173713684082032,4.749259948730469]},{"extras":{},"name":"Assembly-117","mesh":53,"rotation":[0.0,0.0,0.0,-1.0]},{"extras":{},"name":"pSphere3","children":[85],"rotation":[-0.7071067690849304,0.0,0.0,-0.7071067690849304],"scale":[0.0679774209856987,0.0679774209856987,0.0679774209856987],"translation":[0.0,0.0,-0.06838832795619965]},{"extras":{},"name":"Assembly-122","mesh":54,"rotation":[0.0,0.0,0.0,-1.0]},{"extras":{},"name":"pSphere4","children":[87],"rotation":[-0.7071067690849304,0.0,0.0,-0.7071067690849304],"scale":[0.009999999776482582,0.009999999776482582,0.009999999776482582],"translation":[0.0,-0.02999679557979107,0.10389672964811325]},{"extras":{},"name":"Assembly-124","mesh":55,"rotation":[0.0,0.0,0.0,-1.0]}],"scene":0,"scenes":[{"nodes":[0]}],"textures":[{"source":0},{"source":1},{"source":2},{"source":3},{"source":4},{"source":5},{"source":6}]}